FFmpeg version SVN-r25716, Copyright (c) 2000-2010 the FFmpeg developers  built on Nov 10 2010 12:23:18 with gcc 4.1.2 20080704 (Red Hat 4.1.2-48)  configuration: --enable-libmp3lame --enable-shared --disable-mmx --arch=x86_64  libavutil     50.33. 0 / 50.33. 0  libavcore      0.12. 1 /  0.12. 1  libavcodec    52.94. 4 / 52.94. 4  libavformat   52.84. 0 / 52.84. 0  libavdevice   52. 2. 2 / 52. 2. 2  libavfilter    1.59. 0 /  1.59. 0  libswscale     0.12. 0 /  0.12. 0Input #0, avi, from '/RAID10/data/converted_video_files/9968.avi':  Duration: 00:00:03.33, start: 0.000000, bitrate: 5677 kb/s    Stream #0.0: Video: cinepak, yuv420p, 640x512, 15 tbr, 15 tbn, 15 tbc[buffer @ 0x1ef45930] w:640 h:512 pixfmt:yuv420pOutput #0, flv, to '/RAID10/data/converted_video_files/9968.flv':  Metadata:    encoder         : Lavf52.84.0    Stream #0.0: Video: flv, yuv420p, 640x512, q=2-31, 600 kb/s, 1k tbn, 24 tbcStream mapping:  Stream #0.0 -> #0.0Press [q] to stop encodingframe=   44 fps=  0 q=9.4 size=     310kB time=2.92 bitrate= 870.4kbits/s    frame=   50 fps=  0 q=9.5 Lsize=     338kB time=3.29 bitrate= 840.5kbits/s    video:337kB audio:0kB global headers:0kB muxing overhead 0.292964%